<svg xmlns="http://www.w3.org/2000/svg" viewBox="0 0 200 200" width="200" height="200"><defs><filter id="blur" x="-30%" y="-80%" width="160%" height="260%"><feGaussianBlur stdDeviation="4"/></filter><radialGradient id="g" cx="0.4" cy="0.4" r="0.8"><stop offset="0" stop-color="#5E9A4E"/><stop offset="1" stop-color="#2F5E33"/></radialGradient></defs><ellipse cx="100" cy="170" rx="46" ry="9" fill="#2A2733" opacity=".10" filter="url(#blur)"/><path d="M100 36 C 132 40, 154 74, 150 110 C 146 134, 124 142, 108 132 L 108 168 L 92 168 L 92 132 C 76 142, 54 134, 50 110 C 46 74, 68 40, 100 36 Z" fill="url(#g)"/><path d="M100 40 L 100 132 M100 70 C 116 74, 130 88, 138 106 M100 70 C 84 74, 70 88, 62 106 M100 96 C 112 100, 122 110, 128 122 M100 96 C 88 100, 78 110, 72 122" stroke="#F3E6CF" stroke-width="3.5" fill="none" stroke-linecap="round" opacity=".85"/><path d="M92 132 L 92 168 L 108 168 L 108 132 Z" fill="#F3E6CF"/><path d="M100 134 L 100 166" stroke="#D9C4A0" stroke-width="1.5"/></svg>