<svg xmlns="http://www.w3.org/2000/svg" viewBox="0 0 200 200" width="200" height="200"><defs><filter id="blur" x="-30%" y="-80%" width="160%" height="260%"><feGaussianBlur stdDeviation="4"/></filter><radialGradient id="g" cx="0.38" cy="0.35" r="0.75"><stop offset="0" stop-color="#7C8296"/><stop offset="1" stop-color="#3D4152"/></radialGradient></defs><ellipse cx="100" cy="170" rx="46" ry="9" fill="#2A2733" opacity=".10" filter="url(#blur)"/><g transform="translate(100 104) scale(1.15) translate(-100 -104)"><path d="M62 92 C 58 58, 112 48, 138 76 C 158 98, 142 150, 100 148 C 66 146, 52 118, 68 104 C 76 98, 74 96, 62 92 Z" fill="url(#g)"/><circle cx="88" cy="80" r="2.4" fill="#1F2230" opacity=".28"/><circle cx="104" cy="72" r="2.4" fill="#1F2230" opacity=".28"/><circle cx="120" cy="82" r="2.4" fill="#1F2230" opacity=".28"/><circle cx="96" cy="98" r="2.4" fill="#1F2230" opacity=".28"/><circle cx="114" cy="100" r="2.4" fill="#1F2230" opacity=".28"/><circle cx="130" cy="104" r="2.4" fill="#1F2230" opacity=".28"/><circle cx="84" cy="116" r="2.4" fill="#1F2230" opacity=".28"/><circle cx="102" cy="120" r="2.4" fill="#1F2230" opacity=".28"/><circle cx="120" cy="124" r="2.4" fill="#1F2230" opacity=".28"/><circle cx="96" cy="136" r="2.4" fill="#1F2230" opacity=".28"/><circle cx="114" cy="138" r="2.4" fill="#1F2230" opacity=".28"/><ellipse cx="88" cy="78" rx="18" ry="9" transform="rotate(-25 88 78)" fill="#fff" opacity="0.28"/></g></svg>