<svg xmlns="http://www.w3.org/2000/svg" viewBox="0 0 200 200" width="200" height="200"><defs><filter id="blur" x="-30%" y="-80%" width="160%" height="260%"><feGaussianBlur stdDeviation="4"/></filter><radialGradient id="g" cx="0.38" cy="0.35" r="0.75"><stop offset="0" stop-color="#EF9A48"/><stop offset="1" stop-color="#B24E14"/></radialGradient></defs><ellipse cx="100" cy="170" rx="46" ry="9" fill="#2A2733" opacity=".10" filter="url(#blur)"/><ellipse cx="100" cy="112" rx="66" ry="46" fill="url(#g)"/><path d="M68 72 C 56.8 112, 56.8 112, 68 152" stroke="#9A4A14" stroke-width="2.5" fill="none" opacity=".35"/><path d="M86 72 C 81.1 112, 81.1 112, 86 152" stroke="#9A4A14" stroke-width="2.5" fill="none" opacity=".35"/><path d="M104 72 C 105.4 112, 105.4 112, 104 152" stroke="#9A4A14" stroke-width="2.5" fill="none" opacity=".35"/><path d="M122 72 C 129.7 112, 129.7 112, 122 152" stroke="#9A4A14" stroke-width="2.5" fill="none" opacity=".35"/><path d="M100 68 C 92 62, 92 50, 98 42 L 106 44 C 104 54, 106 60, 108 68 Z" fill="#6B5237"/><ellipse cx="72" cy="94" rx="14" ry="10" transform="rotate(-25 72 94)" fill="#fff" opacity="0.28"/></svg>