<svg xmlns="http://www.w3.org/2000/svg" viewBox="0 0 200 200" width="200" height="200"><defs><filter id="blur" x="-30%" y="-80%" width="160%" height="260%"><feGaussianBlur stdDeviation="4"/></filter><radialGradient id="g" cx="0.38" cy="0.35" r="0.75"><stop offset="0" stop-color="#F2A85B"/><stop offset="1" stop-color="#C55E1C"/></radialGradient></defs><ellipse cx="100" cy="170" rx="46" ry="9" fill="#2A2733" opacity=".10" filter="url(#blur)"/><ellipse cx="100" cy="116" rx="50" ry="40" fill="url(#g)"/><path d="M68 82 C 56.8 116, 56.8 116, 68 150" stroke="#9A4A14" stroke-width="2.5" fill="none" opacity=".35"/><path d="M86 82 C 81.1 116, 81.1 116, 86 150" stroke="#9A4A14" stroke-width="2.5" fill="none" opacity=".35"/><path d="M104 82 C 105.4 116, 105.4 116, 104 150" stroke="#9A4A14" stroke-width="2.5" fill="none" opacity=".35"/><path d="M122 82 C 129.7 116, 129.7 116, 122 150" stroke="#9A4A14" stroke-width="2.5" fill="none" opacity=".35"/><path d="M100 78 C 92 72, 92 60, 98 52 L 106 54 C 104 64, 106 70, 108 78 Z" fill="#6B5237"/><ellipse cx="72" cy="98" rx="14" ry="10" transform="rotate(-25 72 98)" fill="#fff" opacity="0.28"/></svg>