<svg xmlns="http://www.w3.org/2000/svg" viewBox="0 0 200 200" width="200" height="200"><defs><filter id="blur" x="-30%" y="-80%" width="160%" height="260%"><feGaussianBlur stdDeviation="4"/></filter><radialGradient id="g" cx="0.4" cy="0.35" r="0.75"><stop offset="0" stop-color="#FBF6EA"/><stop offset="1" stop-color="#D8CBB0"/></radialGradient></defs><ellipse cx="100" cy="170" rx="46" ry="9" fill="#2A2733" opacity=".10" filter="url(#blur)"/><path d="M44 130 C 40 150, 60 166, 100 166 C 140 166, 160 150, 156 130 Z" fill="#7FA56B"/><path d="M58 138 C 70 150, 90 156, 100 156 C 110 156, 130 150, 142 138" stroke="#4F7A4A" stroke-width="2" fill="none" opacity=".6"/><circle cx="100" cy="72" r="20" fill="url(#g)"/><circle cx="74" cy="86" r="18" fill="url(#g)"/><circle cx="126" cy="86" r="18" fill="url(#g)"/><circle cx="60" cy="108" r="16" fill="url(#g)"/><circle cx="140" cy="108" r="16" fill="url(#g)"/><circle cx="86" cy="104" r="18" fill="url(#g)"/><circle cx="114" cy="104" r="18" fill="url(#g)"/><circle cx="100" cy="124" r="20" fill="url(#g)"/><circle cx="72" cy="128" r="15" fill="url(#g)"/><circle cx="128" cy="128" r="15" fill="url(#g)"/><ellipse cx="84" cy="76" rx="10" ry="8" transform="rotate(-25 84 76)" fill="#fff" opacity="0.5"/></svg>