<svg xmlns="http://www.w3.org/2000/svg" viewBox="0 0 200 200" width="200" height="200"><defs><filter id="blur" x="-30%" y="-80%" width="160%" height="260%"><feGaussianBlur stdDeviation="4"/></filter><radialGradient id="g" cx="0.4" cy="0.5" r="0.7"><stop offset="0" stop-color="#BFD98A"/><stop offset="1" stop-color="#5E8A4A"/></radialGradient></defs><ellipse cx="100" cy="170" rx="46" ry="9" fill="#2A2733" opacity=".10" filter="url(#blur)"/><path d="M100 42 C 126 50, 146 82, 146 118 C 146 150, 124 166, 100 166 C 76 166, 54 150, 54 118 C 54 82, 74 50, 100 42 Z" fill="url(#g)"/><path d="M84 60 C 74 90, 74 130, 84 160 M116 60 C 126 90, 126 130, 116 160 M100 46 C 100 90, 100 130, 100 164" stroke="#EAF2C8" stroke-width="3" fill="none" opacity=".6"/><path d="M68 76 C 60 100, 62 140, 76 160 M132 76 C 140 100, 138 140, 124 160" stroke="#4F7A4A" stroke-width="2" fill="none" opacity=".5"/></svg>