<svg xmlns="http://www.w3.org/2000/svg" viewBox="0 0 200 200" width="200" height="200"><defs><filter id="blur" x="-30%" y="-80%" width="160%" height="260%"><feGaussianBlur stdDeviation="4"/></filter><linearGradient id="g" x1="0" y1="0" x2="1" y2="0"><stop offset="0" stop-color="#F0A04B"/><stop offset="1" stop-color="#D6691F"/></linearGradient></defs><ellipse cx="100" cy="170" rx="46" ry="9" fill="#2A2733" opacity=".10" filter="url(#blur)"/><path d="M66 66 C 78 60, 100 62, 118 72 C 144 88, 154 122, 156 156 C 150 146, 124 120, 100 104 C 82 92, 70 80, 66 66 Z" fill="url(#g)"/><path d="M96 88 q 6 -4 12 2 M112 104 q 6 -4 12 2 M128 122 q 6 -4 12 2" stroke="#B85615" stroke-width="2" fill="none" opacity=".5"/><g transform="translate(62 62) rotate(-120)"><path d="M0 0 C 15.0 -8.1, 30 -5.3999999999999995, 30 0 C 30 5.3999999999999995, 15.0 8.1, 0 0 Z" fill="#7FA56B"/><path d="M0 0 Q 15.0 0 30 0" stroke="#4F7A4A" stroke-width="1.6" fill="none" opacity=".8"/></g><g transform="translate(62 62) rotate(-150)"><path d="M0 0 C 17.0 -8.1, 34 -5.3999999999999995, 34 0 C 34 5.3999999999999995, 17.0 8.1, 0 0 Z" fill="#7FA56B"/><path d="M0 0 Q 17.0 0 34 0" stroke="#4F7A4A" stroke-width="1.6" fill="none" opacity=".8"/></g><g transform="translate(62 62) rotate(-90)"><path d="M0 0 C 15.0 -8.1, 30 -5.3999999999999995, 30 0 C 30 5.3999999999999995, 15.0 8.1, 0 0 Z" fill="#7FA56B"/><path d="M0 0 Q 15.0 0 30 0" stroke="#4F7A4A" stroke-width="1.6" fill="none" opacity=".8"/></g><ellipse cx="96" cy="82" rx="6" ry="14" transform="rotate(40 96 82)" fill="#fff" opacity="0.28"/></svg>